HIERARCHY
ROOT Hips
{
    OFFSET 0.000000 0.000000 0.000000
    CHANNELS 6 Xposition Yposition Zposition Zrotation Xrotation Yrotation
    JOINT Spine
    {
        OFFSET -0.000000 14.517291 0.000000
        CHANNELS 3 Zrotation Xrotation Yrotation
        JOINT Spine1
        {
            OFFSET -0.000000 37.558300 0.000000
            CHANNELS 3 Zrotation Xrotation Yrotation
            JOINT Neck
            {
                OFFSET -0.000000 37.404057 3.400369
                CHANNELS 3 Zrotation Xrotation Yrotation
                JOINT Head
                {
                    OFFSET -0.000000 24.785618 -3.540803
                    CHANNELS 3 Zrotation Xrotation Yrotation
                    End Site
                    {
                        OFFSET -0.000000 35.408028 0.000000
                    }
                }
            }
            JOINT LeftShoulder
            {
                OFFSET 6.992933 33.973492 -0.192664
                CHANNELS 3 Zrotation Xrotation Yrotation
                JOINT LeftArm
                {
                    OFFSET 21.527611 0.000000 0.000000
                    CHANNELS 3 Zrotation Xrotation Yrotation
                    JOINT LeftForeArm
                    {
                        OFFSET 56.353916 0.000000 0.000000
                        CHANNELS 3 Zrotation Xrotation Yrotation
                        JOINT LeftHand
                        {
                            OFFSET 47.774071 0.000000 0.000000
                            CHANNELS 3 Zrotation Xrotation Yrotation
                            End Site
                            {
                                OFFSET 26.556021 0.000000 0.000000
                            }
                        }
                    }
                }
            }
            JOINT RightShoulder
            {
                OFFSET -7.065357 33.973492 -0.192664
                CHANNELS 3 Zrotation Xrotation Yrotation
                JOINT RightArm
                {
                    OFFSET -21.527611 0.000000 0.000000
                    CHANNELS 3 Zrotation Xrotation Yrotation
                    JOINT RightForeArm
                    {
                        OFFSET -56.353916 0.000000 0.000000
                        CHANNELS 3 Zrotation Xrotation Yrotation
                        JOINT RightHand
                        {
                            OFFSET -47.774071 0.000000 0.000000
                            CHANNELS 3 Zrotation Xrotation Yrotation
                            End Site
                            {
                                OFFSET -26.556021 0.000000 0.000000
                            }
                        }
                    }
                }
            }
        }
    }
    JOINT LeftUpLeg
    {
        OFFSET 17.704014 0.000000 0.000000
        CHANNELS 3 Zrotation Xrotation Yrotation
        JOINT LeftLeg
        {
            OFFSET -0.000000 -81.181816 0.000000
            CHANNELS 3 Zrotation Xrotation Yrotation
            JOINT LeftFoot
            {
                OFFSET -0.000000 -62.821102 0.000000
                CHANNELS 3 Zrotation Xrotation Yrotation
                JOINT LeftToeBase
                {
                    OFFSET -0.000000 -11.507608 26.556021
                    CHANNELS 3 Zrotation Xrotation Yrotation
                    End Site
                    {
                        OFFSET -0.000000 0.000000 7.081605
                    }
                }
            }
        }
    }
    JOINT RightUpLeg
    {
        OFFSET -17.704014 0.000000 0.000000
        CHANNELS 3 Zrotation Xrotation Yrotation
        JOINT RightLeg
        {
            OFFSET -0.000000 -81.181816 0.000000
            CHANNELS 3 Zrotation Xrotation Yrotation
            JOINT RightFoot
            {
                OFFSET -0.000000 -62.821102 0.000000
                CHANNELS 3 Zrotation Xrotation Yrotation
                JOINT RightToeBase
                {
                    OFFSET -0.000000 -11.507608 26.556021
                    CHANNELS 3 Zrotation Xrotation Yrotation
                    End Site
                    {
                        OFFSET -0.000000 0.000000 7.081605
                    }
                }
            }
        }
    }
}
MOTION
Frames:    5
Frame Time:    0.008333
29.356226    156.717224    -25.977112    2.901608    -2.582724    -92.264763    2.087151    -1.681597    -3.945037    2.012757    0.958162    -1.342217    8.906973    -5.319338    10.104424    -4.852885    11.099216    8.556336    11.484615    -1.917033    -16.961149    -5.948585    0.681033    -10.660587    26.933405    -40.198219    11.086456    -20.073740    -37.060604    -36.425827    -9.198154    4.533248    -2.074610    34.925419    9.515008    78.873787    16.748220    10.448011    107.902847    4.002243    -12.229549    19.057404    18.164936    -5.765703    22.512087    -14.345124    25.132732    11.063812    -5.643820    -12.727671    46.732868    0.000000    0.000000    0.000000    -21.507710    -16.904219    20.495760    3.717316    17.706278    6.415135    12.545354    -7.138224    -5.021938    0.000000    0.000000    0.000000    
29.334009    156.727554    -25.984133    2.912266    -2.578411    -92.217979    2.075357    -1.676710    -3.951401    2.015400    0.961108    -1.344343    8.907117    -5.320543    10.094372    -4.856310    11.079493    8.544720    11.493647    -1.917877    -16.969353    -5.943495    0.668971    -10.723227    26.920454    -40.201805    11.041652    -20.040871    -37.067402    -36.401958    -9.194082    4.542453    -2.087363    34.905651    9.515354    78.884880    16.752296    10.446067    107.904175    4.003038    -12.237346    19.058132    18.166311    -5.770566    22.501572    -14.340397    25.101500    11.057081    -5.652818    -12.706688    46.722717    0.000000    0.000000    0.000000    -21.512409    -16.880194    20.473398    3.722123    17.699596    6.430233    12.537667    -7.144281    -5.063833    0.000000    0.000000    0.000000    
29.308718    156.737854    -25.994757    2.920353    -2.569569    -92.172630    2.067351    -1.661172    -3.946958    2.018112    0.943472    -1.342464    8.925579    -5.305749    10.081653    -4.890897    11.063809    8.526743    11.499082    -1.900786    -16.979599    -5.934846    0.645396    -10.799034    26.913612    -40.217861    11.006143    -20.060762    -37.066341    -36.433891    -9.185242    4.553588    -2.110137    34.902069    9.524339    78.885574    16.755890    10.460201    107.904739    4.017190    -12.226746    19.058044    18.174414    -5.771962    22.506199    -14.325994    25.083477    11.024620    -5.670997    -12.697066    46.707954    0.000000    0.000000    0.000000    -21.509579    -16.853918    20.448902    3.724297    17.697166    6.430151    12.526438    -7.151586    -5.088136    0.000000    0.000000    0.000000    
29.287247    156.747940    -26.004774    2.935163    -2.566497    -92.116142    2.048067    -1.661911    -3.948124    2.025298    0.946129    -1.342847    8.944686    -5.302989    10.068800    -4.917284    11.049722    8.507979    11.507796    -1.905046    -16.993860    -5.925419    0.548282    -10.878006    26.863670    -40.207970    10.967838    -20.086611    -37.029331    -36.485943    -9.170612    4.541420    -2.130131    34.894596    9.535369    78.877457    16.743965    10.473850    107.905945    4.046653    -12.192242    19.056759    18.178362    -5.786433    22.498476    -14.323647    25.060892    11.015375    -5.694058    -12.680761    46.693611    0.000000    0.000000    0.000000    -21.513781    -16.832710    20.398840    3.715163    17.698954    6.413721    12.520658    -7.153555    -5.060339    0.000000    0.000000    0.000000    
29.261312    156.754227    -26.018084    2.944712    -2.560994    -92.058846    2.032787    -1.662673    -3.948710    2.026304    0.953636    -1.343162    8.953568    -5.319254    10.064885    -4.915193    11.063681    8.501563    11.518452    -1.895327    -16.994089    -5.911813    0.494620    -10.971243    26.853321    -40.198624    10.954102    -20.094423    -37.014271    -36.483837    -9.149630    4.518879    -2.130476    34.911610    9.537074    78.844551    16.747089    10.522450    107.911095    4.044195    -12.151060    19.055935    18.182562    -5.789792    22.494284    -14.308957    25.034750    10.985157    -5.716498    -12.672351    46.674461    0.000000    0.000000    0.000000    -21.517998    -16.805664    20.361206    3.721049    17.703409    6.399928    12.528504    -7.172901    -5.070233    0.000000    0.000000    0.000000    
